# xmcd
#
# Track frame offsets: 
#        150
#        22700
#        43112
#        60962
#        75937
#        92200
#        109687
#        130087
#        153000
#        174550
#        198300
#
# Disc length: 2814 seconds
#
# Revision: 1
# Processed by: cddbd v1.5.1PL0 Copyright (c) Steve Scherf et al.
# Submitted via: ExactAudioCopy v0.90b4
#
DISCID=740afc0b
DTITLE=Diane Schuur&B.B.King - Heart To Heart
DYEAR=1994
DGENRE=Blues
TTITLE0=No One Ever Tells You
TTITLE1=I Can't Stop Loving You
TTITLE2=You Don't Know Me
TTITLE3=It Had To Be You
TTITLE4=I'm Putting All My Eggs In One Basket
TTITLE5=Glory Of Love
TTITLE6=Try A Little Tenderness
TTITLE7=Spirit In The Dark
TTITLE8=Freedom
TTITLE9=At Last
TTITLE10=They Can't Take That Away From Me
EXTD=
EXTT0=
EXTT1=
EXTT2=
EXTT3=
EXTT4=
EXTT5=
EXTT6=
EXTT7=
EXTT8=
EXTT9=
EXTT10=
PLAYORDER=
